<svg id="Calque_1" data-name="Calque 1" xmlns="http://www.w3.org/2000/svg" viewBox="0 0 278.6 274.24"><defs><style>.cls-1{fill:#fbcf51;fill-rule:evenodd;}.cls-2{fill:none;stroke:#000;stroke-miterlimit:10;stroke-width:0.1px;}</style></defs><polygon class="cls-1" points="189.2 118.98 189.8 119.61 190.5 120.08 191.35 120.56 192.3 120.93 193.1 121.11 194.22 121.28 195.47 121.26 195.87 121.31 196.89 121.59 197.84 122.03 198.79 122.59 199.51 122.95 200.31 123.44 200.81 123.85 201.19 124.29 201.56 124.98 201.93 125.46 201.98 125.92 201.93 126.61 201.9 127.3 203.03 128.79 205.17 131.8 206.4 133.49 207.42 134.99 208.65 136.81 211.93 141.74 213.52 144.02 212.93 158.69 212.92 158.75 212.79 162.05 210.98 195.33 210.7 214.34 207.21 214.24 205.81 213.92 205.02 213.48 202.81 212.46 201.74 211.83 200.24 210.68 199.09 209.55 197.63 207.95 197 207.16 196.36 206.14 195.55 204.81 194.75 203.46 193.32 201.44 192.5 200.12 191.1 198.06 190.28 196.48 189.29 195.05 187.62 192.55 186.99 191.56 186.66 190.96 186.34 190.34 185.45 189.01 185.02 188.27 184.64 187.82 184.6 187.79 184.3 187.5 183.8 187.23 182.99 186.84 182.48 186.89 181.82 187.18 181.33 187.31 180.31 188.13 177.84 189.7 177.05 189.81 176.01 189.96 173.42 190 171.95 190 171.22 189.77 170.03 189.4 169.2 189.13 168.04 188.69 166.96 188.39 166.33 188.05 164.35 186.63 162.5 185.44 161.46 184.54 160.59 183.48 159.49 182.18 158.78 181.24 157.75 180.08 156.12 178.33 155.3 177.57 154.44 177.17 153.7 176.77 153.43 176.78 152.46 176.91 150.66 177.08 149.55 177.08 148.68 176.71 147.78 176.14 145.62 174.91 143.78 173.81 142.06 172.82 141.51 172.24 140.12 170.77 138.85 169.2 137.64 168.19 137.56 167.13 137.3 165.97 136.84 164.07 136.61 162.48 136.37 160.66 136.03 159.43 135.6 158.08 135.03 155.94 134.44 153.37 133.97 151.53 133.38 148.91 132.64 146.63 131.82 144.22 131.7 142.86 131.05 141.82 129.69 139.97 128.59 138.31 128.08 137.61 127.32 136.54 126.33 135.55 125.56 134.64 124.84 134.45 124.07 134.31 123.08 133.76 121.16 133.28 119.76 132.8 118.07 132.52 116.97 132.38 116.58 132.24 117.07 130.82 117.76 129.24 118.63 127.92 119.5 127.42 121.2 126.9 122.12 126.79 122.54 126.53 123.44 125.84 125.67 124.59 127.61 123.66 128.38 123.26 129.38 123.84 129.33 124.16 130.28 125.46 130.5 126.15 130.5 128.78 131.96 130.85 136.01 131.1 140.04 131.34 140.59 131.13 141.21 130.86 141.95 130.79 143.15 130.61 145.41 129.81 147.36 129.16 148.34 129.04 149.39 128.98 149.65 128.97 151.33 128.8 152.95 128.67 154.35 128.22 156.32 127.25 159.96 125.83 161.57 125.05 163.05 124.24 163.35 124.08 164.65 123.45 165.01 123.03 165.91 122.52 166.31 122.54 166.7 122.41 166.97 121.79 167.75 121.28 168.48 120.85 169.1 120.72 169.95 120.65 170.61 120.5 171.52 120.12 172.51 119.69 173.15 119.48 173.43 119.35 173.85 119.24 174.2 119.24 174.7 119.35 175.13 119.37 175.59 119.28 175.91 119.17 176.3 119.04 176.61 118.89 176.96 118.74 177.26 118.63 179.47 117.93 180.44 117.33 181.49 116.73 182.11 116.26 182.61 115.66 182.96 114.99 183.41 114.21 184.09 114.61 185.09 115.31 186.08 115.99 187.01 116.98 187.78 117.66 188.28 118.11 189.2 118.98"/><polygon class="cls-2" points="189.2 118.98 189.8 119.61 190.5 120.08 191.35 120.56 192.3 120.93 193.1 121.11 194.22 121.28 195.47 121.26 195.87 121.31 196.89 121.59 197.84 122.03 198.79 122.59 199.51 122.95 200.31 123.44 200.81 123.85 201.19 124.29 201.56 124.98 201.93 125.46 201.98 125.92 201.93 126.61 201.9 127.3 203.03 128.79 205.17 131.8 206.4 133.49 207.42 134.99 208.65 136.81 211.93 141.74 213.52 144.02 212.93 158.69 212.92 158.75 212.79 162.05 210.98 195.33 210.7 214.34 207.21 214.24 205.81 213.92 205.02 213.48 202.81 212.46 201.74 211.83 200.24 210.68 199.09 209.55 197.63 207.95 197 207.16 196.36 206.14 195.55 204.81 194.75 203.46 193.32 201.44 192.5 200.12 191.1 198.06 190.28 196.48 189.29 195.05 187.62 192.55 186.99 191.56 186.66 190.96 186.34 190.34 185.45 189.01 185.02 188.27 184.64 187.82 184.6 187.79 184.3 187.5 183.8 187.23 182.99 186.84 182.48 186.89 181.82 187.18 181.33 187.31 180.31 188.13 177.84 189.7 177.05 189.81 176.01 189.96 173.42 190 171.95 190 171.22 189.77 170.03 189.4 169.2 189.13 168.04 188.69 166.96 188.39 166.33 188.05 164.35 186.63 162.5 185.44 161.46 184.54 160.59 183.48 159.49 182.18 158.78 181.24 157.75 180.08 156.12 178.33 155.3 177.57 154.44 177.17 153.7 176.77 153.43 176.78 152.46 176.91 150.66 177.08 149.55 177.08 148.68 176.71 147.78 176.14 145.62 174.91 143.78 173.81 142.06 172.82 141.51 172.24 140.12 170.77 138.85 169.2 137.64 168.19 137.56 167.13 137.3 165.97 136.84 164.07 136.61 162.48 136.37 160.66 136.03 159.43 135.6 158.08 135.03 155.94 134.44 153.37 133.97 151.53 133.38 148.91 132.64 146.63 131.82 144.22 131.7 142.86 131.05 141.82 129.69 139.97 128.59 138.31 128.08 137.61 127.32 136.54 126.33 135.55 125.56 134.64 124.84 134.45 124.07 134.31 123.08 133.76 121.16 133.28 119.76 132.8 118.07 132.52 116.97 132.38 116.58 132.24 117.07 130.82 117.76 129.24 118.63 127.92 119.5 127.42 121.2 126.9 122.12 126.79 122.54 126.53 123.44 125.84 125.67 124.59 127.61 123.66 128.38 123.26 129.38 123.84 129.33 124.16 130.28 125.46 130.5 126.15 130.5 128.78 131.96 130.85 136.01 131.1 140.04 131.34 140.59 131.13 141.21 130.86 141.95 130.79 143.15 130.61 145.41 129.81 147.36 129.16 148.34 129.04 149.39 128.98 149.65 128.97 151.33 128.8 152.95 128.67 154.35 128.22 156.32 127.25 159.96 125.83 161.57 125.05 163.05 124.24 163.35 124.08 164.65 123.45 165.01 123.03 165.91 122.52 166.31 122.54 166.7 122.41 166.97 121.79 167.75 121.28 168.48 120.85 169.1 120.72 169.95 120.65 170.61 120.5 171.52 120.12 172.51 119.69 173.15 119.48 173.43 119.35 173.85 119.24 174.2 119.24 174.7 119.35 175.13 119.37 175.59 119.28 175.91 119.17 176.3 119.04 176.61 118.89 176.96 118.74 177.26 118.63 179.47 117.93 180.44 117.33 181.49 116.73 182.11 116.26 182.61 115.66 182.96 114.99 183.41 114.21 184.09 114.61 185.09 115.31 186.08 115.99 187.01 116.98 187.78 117.66 188.28 118.11 189.2 118.98"/><polygon class="cls-1" points="192.03 86.33 192.14 87.34 192.17 87.89 192.26 88.22 192.54 88.57 192.81 88.9 192.83 89.1 192.78 89.47 192.67 89.84 193.47 91.02 193.6 91.17 193.93 91.53 194.12 91.69 194.37 92.02 194.61 92.43 194.73 92.85 194.82 93.41 195.09 94.45 195.48 95.67 195.37 95.95 195.13 96.08 194.89 96.25 193.21 97.42 192.59 97.87 192.17 98.24 192.01 98.48 191.8 98.76 191.72 98.97 191.68 99.17 191.78 99.3 191.94 99.39 192.22 99.53 192.42 99.57 192.81 99.72 192.87 99.81 192.9 100.09 192.86 100.23 192.79 100.37 192.65 100.49 192.52 100.58 192.32 100.66 192.12 100.74 191.87 100.85 191.62 100.99 190.97 101.62 190.57 101.99 190.38 102.06 190.22 102.1 190.1 102.1 189.82 101.97 189.67 101.77 189.67 101.51 189.9 101.11 190.31 100.6 190.76 100.19 190.94 100.01 191.02 99.82 190.94 99.68 190.86 99.63 190.75 99.63 190.63 99.63 190.44 99.64 190.26 99.71 189.93 99.88 189.73 100.02 189.45 100.17 189.19 100.25 188.27 100.47 188.01 100.66 188.24 101.02 188.71 101.74 188.9 102.41 188.78 104 188.69 104.33 188.47 104.5 188.31 104.83 188.4 105.12 188.68 105.21 188.87 105.25 189.18 105.25 189.44 105.34 189.78 105.45 189.95 105.63 189.99 105.8 189.89 105.91 189.76 106.07 189.38 106.86 189.12 107.39 189.06 107.75 189.34 108.47 190.11 109.18 190.58 109.67 191.03 109.85 191.85 109.9 192.71 109.86 192.24 110.81 191.62 112.9 191.41 113.84 191.25 114.61 191.39 115.33 192.27 116.19 192.92 116.91 193.23 117.26 193.27 117.91 193.47 118.52 193.8 118.72 193.97 118.71 194.22 118.6 194.46 118.39 194.59 118.31 194.78 118.22 195.01 118.19 195.15 118.24 195.39 118.31 195.54 118.39 195.72 118.74 195.73 119.93 195.77 120.81 195.87 121.31 195.47 121.26 194.22 121.28 193.1 121.11 192.3 120.93 191.35 120.56 190.5 120.08 189.8 119.61 189.2 118.98 188.28 118.11 187.78 117.66 187.01 116.98 186.08 115.99 185.09 115.31 184.09 114.61 183.41 114.21 182.96 114.99 182.61 115.66 182.11 116.26 181.49 116.73 180.44 117.33 179.47 117.93 177.26 118.63 176.96 118.74 176.61 118.89 176.3 119.04 175.91 119.17 175.59 119.28 175.13 119.37 174.7 119.35 174.2 119.24 173.85 119.24 173.43 119.35 173.15 119.48 172.51 119.69 171.52 120.12 170.61 120.5 169.95 120.65 169.1 120.72 168.48 120.85 167.75 121.28 166.97 121.79 166.7 122.41 166.31 122.54 165.91 122.52 165.01 123.03 164.65 123.45 163.34 124.08 163.05 124.24 161.57 125.05 159.96 125.83 156.32 127.25 154.35 128.22 152.95 128.67 151.33 128.81 149.65 128.97 149.39 128.98 148.34 129.04 147.36 129.16 145.41 129.81 143.15 130.61 141.95 130.79 141.21 130.86 140.59 131.13 140.04 131.34 136.01 131.1 131.96 130.85 130.5 128.78 130.5 126.15 130.28 125.47 129.33 124.16 129.38 123.85 128.38 123.26 127.61 123.66 125.67 124.59 123.44 125.84 122.54 126.53 122.12 126.79 121.2 126.9 119.5 127.42 118.63 127.92 117.76 129.24 117.07 130.82 116.58 132.24 116.05 132.05 115.07 131.85 114.71 131.4 113.81 131.29 113.4 130.91 111.95 130.86 111.62 130.76 111.6 130.31 111.59 130.07 110.91 129.86 110.2 129.74 110.01 129.57 109.92 128.96 109.82 128.54 109.61 128.08 109.24 127.62 108.62 127.17 107.42 126.5 106.84 126.26 106.51 126.09 106.74 125.74 106.57 125.49 106.08 125.47 105.49 125.59 104.81 125.7 104.03 125.64 103.37 125.43 102.53 124.83 101.75 124.28 101.38 123.83 101.05 122.7 100.83 121.13 100.34 120.37 99.83 119.67 99.51 118.9 99.33 118.11 99.1 117.53 99.74 117.17 100.19 116.68 100.59 116.05 101.01 115.42 101.53 114.69 101.81 114.36 102.07 114.14 102.42 113.88 102.94 113.57 103.19 113.47 103.79 113.29 104.14 113.27 104.51 113.14 105.46 112.63 106.25 112.21 106.95 111.8 107.61 111.51 108.36 111.32 110.85 110.13 111.55 109.78 112.24 109.54 112.6 109.38 115.23 108.17 116.45 107.65 117.2 107.25 117.22 107.24 120.56 105.51 121.2 105.21 121.52 105.03 123.14 104.09 124.21 103.45 124.68 103.08 125.13 102.86 125.65 102.57 127.22 101.55 127.83 101.02 128.46 100.5 128.72 100.22 129.17 99.79 130.13 98.82 130.69 98.17 130.96 97.79 131.27 97.4 131.46 97.3 131.71 97.28 132.03 96.79 132.25 96.41 132.46 96.08 132.7 95.75 133.11 95.01 133.22 94.88 133.9 95.29 134.63 95.62 135 95.79 135.19 96.06 135.32 96.35 135.53 96.42 135.66 96.41 135.84 96.39 135.99 96.39 136.13 96.54 136.43 97.23 136.72 97.5 136.87 97.58 137 97.56 137.09 97.54 137.25 97.34 137.44 97.02 137.69 96.75 137.96 96.58 138.69 96.6 139.39 96.62 139.57 96.55 139.79 96.45 140.06 96.32 140.16 96.24 140.31 96.23 140.48 96.34 140.71 96.69 140.92 96.96 141.37 97.03 141.68 97 142.01 96.95 142.12 96.91 142.36 96.85 142.56 96.8 142.71 96.8 143.01 97.29 143.33 97.91 143.45 98.21 143.22 98.67 143.14 99.12 142.84 99.47 143.74 99.9 144.18 99.96 144.53 100.03 144.77 100.16 145.12 100.56 145.28 100.8 145.39 100.99 146.64 101.09 147.2 100.92 147.79 100.67 148.39 100.43 148.53 100.43 147.88 99.04 148.4 98.42 149.57 97.49 150.42 96.72 151.18 95.99 151.56 95.64 152.08 95.72 152.57 95.77 153.22 95.42 154.04 94.79 154.64 94.41 155.08 94.22 155.49 94.19 155.66 94.25 156.3 94.46 157.31 95.25 158.75 96.07 159.38 96.64 159.93 97.11 160.34 96.34 160.39 95.57 160.34 95.01 160.24 94.46 160.33 94.05 160.48 93.94 160.96 93.94 161.49 93.92 161.98 93.91 162.07 93.94 162.26 93.54 162.26 93.27 162.14 92.91 161.97 92.51 161.72 91.97 161.54 91.05 161.4 90.37 161.5 89.97 161.54 89.81 161.85 89.36 162.48 88.95 163.34 88.66 163.9 88.33 164.14 88.23 164.17 87.94 164.21 87.54 164.26 87.27 164.44 87.27 164.71 87.27 164.95 87.36 165.43 87.45 165.81 87.45 166.12 87.22 166.23 86.89 166.48 86.84 166.84 86.91 167.38 86.91 167.4 87.25 167.4 87.63 167.58 88.12 167.87 88.64 167.88 88.66 168.29 89.55 169.07 90.82 169.29 91.25 169.68 91.57 170.18 91.96 170.43 92.04 170.81 92.02 171.09 91.92 171.69 91.9 172.05 91.84 172.51 91.66 173.09 91.33 173.95 90.55 175.28 89.47 175.87 88.88 176.09 88.59 176.12 88.41 175.79 88.03 175.16 87.58 175.07 87.36 175.11 87.15 175.26 87.02 175.49 86.95 175.72 86.9 176.05 86.89 176.37 86.88 176.65 86.87 176.98 86.86 177.22 86.89 177.5 86.99 178.34 87.41 178.6 87.51 178.79 87.58 178.95 87.9 179.44 88.57 180.06 89.13 180.26 89.31 180.47 89.4 180.73 89.45 180.98 89.47 180.98 89.5 180.99 89.49 182.19 89.12 183.23 88.63 184.29 87.97 184.75 87.44 185.41 86.94 185.7 86.66 185.92 86.5 186.46 86.74 186.88 86.91 187.22 87.01 187.7 87.08 188.19 87.12 188.84 87.11 189.29 87.06 189.88 86.91 190.25 86.7 191.09 85.98 191.38 85.47 191.55 85.08 191.75 84.71 192.03 86.33"/><polygon class="cls-2" points="192.03 86.33 192.14 87.34 192.17 87.89 192.26 88.22 192.54 88.57 192.81 88.9 192.83 89.1 192.78 89.47 192.67 89.84 193.47 91.02 193.6 91.17 193.93 91.53 194.12 91.69 194.37 92.02 194.61 92.43 194.73 92.85 194.82 93.41 195.09 94.45 195.48 95.67 195.37 95.95 195.13 96.08 194.89 96.25 193.21 97.42 192.59 97.87 192.17 98.24 192.01 98.48 191.8 98.76 191.72 98.97 191.68 99.17 191.78 99.3 191.94 99.39 192.22 99.53 192.42 99.57 192.81 99.72 192.87 99.81 192.9 100.09 192.86 100.23 192.79 100.37 192.65 100.49 192.52 100.58 192.32 100.66 192.12 100.74 191.87 100.85 191.62 100.99 190.97 101.62 190.57 101.99 190.38 102.06 190.22 102.1 190.1 102.1 189.82 101.97 189.67 101.77 189.67 101.51 189.9 101.11 190.31 100.6 190.76 100.19 190.94 100.01 191.02 99.82 190.94 99.68 190.86 99.63 190.75 99.63 190.63 99.63 190.44 99.64 190.26 99.71 189.93 99.88 189.73 100.02 189.45 100.17 189.19 100.25 188.27 100.47 188.01 100.66 188.24 101.02 188.71 101.74 188.9 102.41 188.78 104 188.69 104.33 188.47 104.5 188.31 104.83 188.4 105.12 188.68 105.21 188.87 105.25 189.18 105.25 189.44 105.34 189.78 105.45 189.95 105.63 189.99 105.8 189.89 105.91 189.76 106.07 189.38 106.86 189.12 107.39 189.06 107.75 189.34 108.47 190.11 109.18 190.58 109.67 191.03 109.85 191.85 109.9 192.71 109.86 192.24 110.81 191.62 112.9 191.41 113.84 191.25 114.61 191.39 115.33 192.27 116.19 192.92 116.91 193.23 117.26 193.27 117.91 193.47 118.52 193.8 118.72 193.97 118.71 194.22 118.6 194.46 118.39 194.59 118.31 194.78 118.22 195.01 118.19 195.15 118.24 195.39 118.31 195.54 118.39 195.72 118.74 195.73 119.93 195.77 120.81 195.87 121.31 195.47 121.26 194.22 121.28 193.1 121.11 192.3 120.93 191.35 120.56 190.5 120.08 189.8 119.61 189.2 118.98 188.28 118.11 187.78 117.66 187.01 116.98 186.08 115.99 185.09 115.31 184.09 114.61 183.41 114.21 182.96 114.99 182.61 115.66 182.11 116.26 181.49 116.73 180.44 117.33 179.47 117.93 177.26 118.63 176.96 118.74 176.61 118.89 176.3 119.04 175.91 119.17 175.59 119.28 175.13 119.37 174.7 119.35 174.2 119.24 173.85 119.24 173.43 119.35 173.15 119.48 172.51 119.69 171.52 120.12 170.61 120.5 169.95 120.65 169.1 120.72 168.48 120.85 167.75 121.28 166.97 121.79 166.7 122.41 166.31 122.54 165.91 122.52 165.01 123.03 164.65 123.45 163.34 124.08 163.05 124.24 161.57 125.05 159.96 125.83 156.32 127.25 154.35 128.22 152.95 128.67 151.33 128.81 149.65 128.97 149.39 128.98 148.34 129.04 147.36 129.16 145.41 129.81 143.15 130.61 141.95 130.79 141.21 130.86 140.59 131.13 140.04 131.34 136.01 131.1 131.96 130.85 130.5 128.78 130.5 126.15 130.28 125.47 129.33 124.16 129.38 123.85 128.38 123.26 127.61 123.66 125.67 124.59 123.44 125.84 122.54 126.53 122.12 126.79 121.2 126.9 119.5 127.42 118.63 127.92 117.76 129.24 117.07 130.82 116.58 132.24 116.05 132.05 115.07 131.85 114.71 131.4 113.81 131.29 113.4 130.91 111.95 130.86 111.62 130.76 111.6 130.31 111.59 130.07 110.91 129.86 110.2 129.74 110.01 129.57 109.92 128.96 109.82 128.54 109.61 128.08 109.24 127.62 108.62 127.17 107.42 126.5 106.84 126.26 106.51 126.09 106.74 125.74 106.57 125.49 106.08 125.47 105.49 125.59 104.81 125.7 104.03 125.64 103.37 125.43 102.53 124.83 101.75 124.28 101.38 123.83 101.05 122.7 100.83 121.13 100.34 120.37 99.83 119.67 99.51 118.9 99.33 118.11 99.1 117.53 99.74 117.17 100.19 116.68 100.59 116.05 101.01 115.42 101.53 114.69 101.81 114.36 102.07 114.14 102.42 113.88 102.94 113.57 103.19 113.47 103.79 113.29 104.14 113.27 104.51 113.14 105.46 112.63 106.25 112.21 106.95 111.8 107.61 111.51 108.36 111.32 110.85 110.13 111.55 109.78 112.24 109.54 112.6 109.38 115.23 108.17 116.45 107.65 117.2 107.25 117.22 107.24 120.56 105.51 121.2 105.21 121.52 105.03 123.14 104.09 124.21 103.45 124.68 103.08 125.13 102.86 125.65 102.57 127.22 101.55 127.83 101.02 128.46 100.5 128.72 100.22 129.17 99.79 130.13 98.82 130.69 98.17 130.96 97.79 131.27 97.4 131.46 97.3 131.71 97.28 132.03 96.79 132.25 96.41 132.46 96.08 132.7 95.75 133.11 95.01 133.22 94.88 133.9 95.29 134.63 95.62 135 95.79 135.19 96.06 135.32 96.35 135.53 96.42 135.66 96.41 135.84 96.39 135.99 96.39 136.13 96.54 136.43 97.23 136.72 97.5 136.87 97.58 137 97.56 137.09 97.54 137.25 97.34 137.44 97.02 137.69 96.75 137.96 96.58 138.69 96.6 139.39 96.62 139.57 96.55 139.79 96.45 140.06 96.32 140.16 96.24 140.31 96.23 140.48 96.34 140.71 96.69 140.92 96.96 141.37 97.03 141.68 97 142.01 96.95 142.12 96.91 142.36 96.85 142.56 96.8 142.71 96.8 143.01 97.29 143.33 97.91 143.45 98.21 143.22 98.67 143.14 99.12 142.84 99.47 143.74 99.9 144.18 99.96 144.53 100.03 144.77 100.16 145.12 100.56 145.28 100.8 145.39 100.99 146.64 101.09 147.2 100.92 147.79 100.67 148.39 100.43 148.53 100.43 147.88 99.04 148.4 98.42 149.57 97.49 150.42 96.72 151.18 95.99 151.56 95.64 152.08 95.72 152.57 95.77 153.22 95.42 154.04 94.79 154.64 94.41 155.08 94.22 155.49 94.19 155.66 94.25 156.3 94.46 157.31 95.25 158.75 96.07 159.38 96.64 159.93 97.11 160.34 96.34 160.39 95.57 160.34 95.01 160.24 94.46 160.33 94.05 160.48 93.94 160.96 93.94 161.49 93.92 161.98 93.91 162.07 93.94 162.26 93.54 162.26 93.27 162.14 92.91 161.97 92.51 161.72 91.97 161.54 91.05 161.4 90.37 161.5 89.97 161.54 89.81 161.85 89.36 162.48 88.95 163.34 88.66 163.9 88.33 164.14 88.23 164.17 87.94 164.21 87.54 164.26 87.27 164.44 87.27 164.71 87.27 164.95 87.36 165.43 87.45 165.81 87.45 166.12 87.22 166.23 86.89 166.48 86.84 166.84 86.91 167.38 86.91 167.4 87.25 167.4 87.63 167.58 88.12 167.87 88.64 167.88 88.66 168.29 89.55 169.07 90.82 169.29 91.25 169.68 91.57 170.18 91.96 170.43 92.04 170.81 92.02 171.09 91.92 171.69 91.9 172.05 91.84 172.51 91.66 173.09 91.33 173.95 90.55 175.28 89.47 175.87 88.88 176.09 88.59 176.12 88.41 175.79 88.03 175.16 87.58 175.07 87.36 175.11 87.15 175.26 87.02 175.49 86.95 175.72 86.9 176.05 86.89 176.37 86.88 176.65 86.87 176.98 86.86 177.22 86.89 177.5 86.99 178.34 87.41 178.6 87.51 178.79 87.58 178.95 87.9 179.44 88.57 180.06 89.13 180.26 89.31 180.47 89.4 180.73 89.45 180.98 89.47 180.98 89.5 180.99 89.49 182.19 89.12 183.23 88.63 184.29 87.97 184.75 87.44 185.41 86.94 185.7 86.66 185.92 86.5 186.46 86.74 186.88 86.91 187.22 87.01 187.7 87.08 188.19 87.12 188.84 87.11 189.29 87.06 189.88 86.91 190.25 86.7 191.09 85.98 191.38 85.47 191.55 85.08 191.75 84.71 192.03 86.33"/><polygon class="cls-1" points="153.83 75.85 154.51 75.89 154.79 75.77 155.13 75.64 155.52 75.4 155.77 75.17 156.1 74.89 156.5 74.66 156.62 74.61 156.94 74.61 157.12 74.61 157.41 74.61 157.67 74.58 157.83 74.56 158.01 74.51 158.14 74.37 158.22 74.22 158.22 73.99 158.29 73.8 158.38 73.62 158.5 73.48 158.58 73.43 158.64 73.39 158.68 73.35 158.88 73.94 158.96 74.41 158.94 74.92 158.88 75.33 158.72 75.78 158.21 76.47 157.66 76.95 157.49 77.22 157.46 77.48 157.55 77.73 157.92 77.95 158.37 78.86 158.86 78.94 158.82 79 158.72 79.16 158.59 79.41 158.67 79.69 158.64 79.99 158.91 80.14 159.25 80.03 159.31 80.23 159.66 80.56 159.95 80.57 160.29 80.79 160.57 80.91 160.94 80.99 161.5 80.97 161.84 80.95 162.37 80.89 162.67 80.83 163.26 80.61 163.54 80.53 163.76 80.3 163.92 80.02 164.1 79.8 164.51 79.8 164.79 79.8 165.17 79.74 165.4 79.62 165.6 79.4 165.84 79.17 166.08 78.87 166.19 78.59 166.33 78.46 166.38 78.46 166.63 78.46 166.92 78.52 167.03 78.64 167.1 78.87 167.12 79.09 167.17 79.33 167.35 79.33 167.51 79.33 167.73 79.38 167.89 79.45 167.93 79.52 168.05 79.67 168.23 79.81 168.63 79.95 169.08 80.17 169.28 80.39 169.28 80.53 169.26 80.74 169.19 80.92 169.09 81.38 169.09 81.58 169.13 81.92 169.13 82.32 169.12 82.46 169.33 82.2 169.52 81.95 169.64 81.81 169.79 81.68 169.92 81.64 170.08 81.65 170.28 81.81 170.3 81.22 170.1 80.55 170.01 80.17 169.89 79.78 169.78 79.5 169.64 79.2 169.55 78.99 169.41 78.76 169.34 78.63 169.71 78.7 170.01 79 170.37 79.34 170.78 79.77 171.06 80.26 171.29 80.53 171.54 80.62 171.75 80.62 172.1 80.4 172.31 79.91 172.56 79.59 172.65 79.2 172.71 78.84 172.74 78.54 172.97 78.31 173.48 78.01 173.73 77.83 173.93 77.73 174.04 78 174.13 78.4 174.25 78.78 174.38 79.06 174.5 79.22 174.97 79.42 175.37 79.86 175.66 80.2 175.69 80.51 175.78 80.56 175.8 80.59 175.85 80.61 175.89 80.65 175.94 80.66 175.97 80.69 175.99 80.71 176.03 80.74 176.08 80.78 176.12 80.81 176.2 80.91 176.27 80.96 176.35 81.07 176.37 81.09 176.4 81.11 176.42 81.13 176.44 81.13 176.46 81.13 176.48 81.13 176.5 81.13 176.51 81.12 176.51 81.11 176.55 81.09 176.58 81.05 176.61 81 176.61 80.98 176.66 80.93 176.66 80.9 176.68 80.85 176.72 80.73 176.87 80.49 177.02 80.18 177.08 80.11 177.1 80.07 177.15 79.99 177.17 79.96 177.22 79.85 177.24 79.81 177.26 79.79 177.29 79.75 177.3 79.75 177.31 79.74 177.34 79.73 177.35 79.73 177.4 79.74 177.43 79.75 177.43 79.77 177.44 79.78 177.46 79.78 177.47 79.81 177.49 79.82 177.5 79.84 177.55 79.94 177.6 80.01 177.63 80.08 177.66 80.14 177.85 80.33 177.93 80.33 178.03 80.33 178.22 80.33 178.38 80.33 178.43 80.33 178.5 80.33 178.58 80.33 178.64 80.34 178.71 80.37 178.74 80.37 178.81 80.4 178.89 80.43 178.93 80.44 178.98 80.49 179.07 80.52 179.13 80.59 179.18 80.62 179.2 80.65 179.3 80.73 179.34 80.78 179.36 80.8 179.4 80.86 179.44 80.92 179.49 80.97 179.54 81.05 179.6 81.1 179.78 81.19 179.79 81.19 179.8 81.19 179.81 81.19 179.87 81.17 179.88 81.16 179.91 81.15 179.93 81.13 179.94 81.11 179.97 81.08 180.01 81.04 180.04 81 180.06 80.98 180.09 80.95 180.19 80.83 180.22 80.76 180.26 80.69 180.27 80.67 180.28 80.63 180.32 80.6 180.34 80.59 180.39 80.57 180.35 80.45 180.29 80.29 180.24 80.16 180.24 80.03 180.24 79.87 180.37 79.82 180.5 79.82 180.66 79.82 180.71 79.87 180.74 79.93 180.82 80 180.93 80.11 180.98 80.11 181.13 79.9 181.13 79.87 181.21 79.61 181.26 79.58 181.42 79.58 181.74 79.53 181.76 79.53 182.03 79.53 182.05 79.45 182.13 79.32 182.18 79.17 182.26 78.98 182.42 78.69 182.52 78.25 182.71 77.78 182.98 77.24 183.17 77.22 184.04 77.28 184.3 77.03 184.39 77.01 184.68 76.99 184.94 77.03 185.33 77.21 185.64 77.41 185.87 77.62 186.1 77.78 186.35 77.87 186.56 77.87 186.97 77.85 187.13 78.01 187.42 78.3 188.07 78.79 188.43 78.99 188.52 79.04 189 79.4 189.53 79.81 190 80.31 190.37 80.88 190.89 81.64 191.49 82.63 192.21 83.68 191.95 84.33 191.75 84.71 191.55 85.08 191.38 85.47 191.09 85.98 190.25 86.7 189.88 86.91 189.29 87.06 188.84 87.11 188.19 87.12 187.7 87.08 187.22 87.01 186.88 86.91 186.46 86.74 185.92 86.5 185.7 86.66 185.41 86.94 184.75 87.44 184.29 87.97 183.23 88.63 182.19 89.12 180.99 89.49 180.98 89.5 180.98 89.48 180.73 89.45 180.47 89.4 180.26 89.31 180.06 89.13 179.44 88.57 178.95 87.91 178.79 87.58 178.6 87.51 178.35 87.41 177.5 86.99 177.22 86.89 176.98 86.86 176.65 86.87 176.37 86.88 176.05 86.89 175.72 86.9 175.49 86.95 175.26 87.02 175.11 87.15 175.07 87.36 175.16 87.58 175.79 88.03 176.12 88.41 176.09 88.59 175.87 88.88 175.28 89.47 173.95 90.55 173.09 91.33 172.51 91.66 172.05 91.84 171.69 91.9 171.09 91.92 170.81 92.03 170.43 92.04 170.18 91.96 169.68 91.57 169.29 91.25 169.07 90.82 168.29 89.55 167.88 88.66 167.87 88.64 167.58 88.12 167.4 87.63 167.4 87.25 167.38 86.91 166.84 86.91 166.48 86.84 166.23 86.89 166.12 87.22 165.81 87.45 165.43 87.45 164.95 87.36 164.71 87.27 164.44 87.27 164.26 87.27 164.21 87.54 164.17 87.94 164.14 88.24 163.9 88.33 163.34 88.66 162.48 88.95 161.85 89.36 161.54 89.81 161.5 89.97 161.4 90.37 161.54 91.05 161.72 91.97 161.97 92.51 162.14 92.91 162.26 93.27 162.26 93.54 162.07 93.94 161.98 93.91 161.49 93.92 160.96 93.94 160.48 93.94 160.33 94.05 160.24 94.46 160.34 95.01 160.39 95.57 160.35 96.34 159.93 97.11 159.38 96.64 158.75 96.07 157.31 95.25 156.3 94.46 155.66 94.25 155.49 94.19 155.08 94.22 154.64 94.41 154.04 94.79 153.22 95.42 152.57 95.77 152.08 95.72 151.56 95.64 151.18 95.99 150.42 96.73 149.57 97.49 148.4 98.42 147.88 99.04 148.53 100.43 148.39 100.43 147.79 100.67 147.2 100.92 146.64 101.09 145.39 100.99 145.28 100.8 145.12 100.56 144.77 100.16 144.53 100.03 144.18 99.96 143.74 99.9 142.84 99.47 143.14 99.12 143.22 98.67 143.45 98.21 143.33 97.91 143.01 97.29 142.71 96.8 142.56 96.8 142.36 96.85 142.12 96.91 142.01 96.95 141.68 97 141.37 97.03 140.92 96.96 140.71 96.69 140.48 96.34 140.31 96.23 140.16 96.24 140.06 96.32 139.79 96.45 139.57 96.55 139.39 96.62 138.69 96.6 137.96 96.58 137.69 96.75 137.44 97.02 137.25 97.34 137.09 97.54 137 97.56 136.87 97.58 136.72 97.5 136.43 97.23 136.13 96.54 135.99 96.39 135.84 96.39 135.66 96.41 135.53 96.42 135.32 96.35 135.19 96.06 135 95.79 134.63 95.62 133.9 95.29 133.22 94.88 133.54 94.49 134.67 93.22 135.28 92.53 135.83 91.92 136.18 91.52 137.76 89.85 138.1 89.48 138.89 88.93 139.19 88.7 139.25 88.55 139.35 88.43 139.42 88.4 140.51 87.91 141.16 87.3 142.02 86.77 142.39 86.53 142.64 86.25 142.82 85.97 143.19 85.42 143.31 84.96 143.5 84.56 143.65 84.34 143.66 84.33 143.87 84.12 143.96 83.85 144.24 83.69 144.27 83.42 144.27 83.11 144.3 82.86 144.79 82.34 145.16 81.88 145.41 81.51 145.72 81.2 145.94 81 146.24 80.75 146.57 80.36 146.96 80 147.16 79.85 147.47 79.69 147.83 79.25 147.99 78.84 148.14 78.48 148.42 78.02 148.63 77.63 148.83 77.22 149.09 76.91 149.3 76.78 149.5 76.55 149.79 76.17 149.87 75.98 149.94 75.8 150.05 75.58 150.13 75.33 150.16 75.14 150.15 74.98 150.1 74.51 150.22 74.38 150.35 74.28 150.51 74.26 150.51 74.07 150.41 73.88 150.43 73.73 150.53 73.67 150.72 73.65 150.81 73.59 150.87 73.36 150.81 73.13 150.77 72.96 150.77 72.81 150.94 72.39 151.19 72.1 151.29 71.87 151.44 71.7 151.65 71.57 151.92 71.41 152.09 71.14 152.32 70.78 152.55 70.38 152.89 69.74 152.95 69.62 153.08 69.39 153.17 69.24 153.17 69.23 153.44 69.41 153.54 69.52 153.54 69.68 153.54 69.92 153.56 70.13 153.6 70.35 153.65 70.51 153.75 70.65 153.85 70.74 153.93 70.84 153.96 70.99 153.95 71.28 153.94 71.52 153.91 71.66 153.83 71.89 153.89 72.04 154 72.07 154.18 72.12 154.3 72.19 154.3 72.33 154.26 72.58 154.18 72.84 154.14 72.99 154.1 73.31 154.07 73.69 154.07 73.88 153.95 74.12 153.8 74.27 153.65 74.39 153.52 74.52 153.43 74.8 153.43 75.03 153.54 75.37 153.65 75.67 153.64 75.84 153.83 75.85"/><polygon class="cls-2" points="153.83 75.85 154.51 75.89 154.79 75.77 155.13 75.64 155.52 75.4 155.77 75.17 156.1 74.89 156.5 74.66 156.62 74.61 156.94 74.61 157.12 74.61 157.41 74.61 157.67 74.58 157.83 74.56 158.01 74.51 158.14 74.37 158.22 74.22 158.22 73.99 158.29 73.8 158.38 73.62 158.5 73.48 158.58 73.43 158.64 73.39 158.68 73.35 158.88 73.94 158.96 74.41 158.94 74.92 158.88 75.33 158.72 75.78 158.21 76.47 157.66 76.95 157.49 77.22 157.46 77.48 157.55 77.73 157.92 77.95 158.37 78.86 158.86 78.94 158.82 79 158.72 79.16 158.59 79.41 158.67 79.69 158.64 79.99 158.91 80.14 159.25 80.03 159.31 80.23 159.66 80.56 159.95 80.57 160.29 80.79 160.57 80.91 160.94 80.99 161.5 80.97 161.84 80.95 162.37 80.89 162.67 80.83 163.26 80.61 163.54 80.53 163.76 80.3 163.92 80.02 164.1 79.8 164.51 79.8 164.79 79.8 165.17 79.74 165.4 79.62 165.6 79.4 165.84 79.17 166.08 78.87 166.19 78.59 166.33 78.46 166.38 78.46 166.63 78.46 166.92 78.52 167.03 78.64 167.1 78.87 167.12 79.09 167.17 79.33 167.35 79.33 167.51 79.33 167.73 79.38 167.89 79.45 167.93 79.52 168.05 79.67 168.23 79.81 168.63 79.95 169.08 80.17 169.28 80.39 169.28 80.53 169.26 80.74 169.19 80.92 169.09 81.38 169.09 81.58 169.13 81.92 169.13 82.32 169.12 82.46 169.33 82.2 169.52 81.95 169.64 81.81 169.79 81.68 169.92 81.64 170.08 81.65 170.28 81.81 170.3 81.22 170.1 80.55 170.01 80.17 169.89 79.78 169.78 79.5 169.64 79.2 169.55 78.99 169.41 78.76 169.34 78.63 169.71 78.7 170.01 79 170.37 79.34 170.78 79.77 171.06 80.26 171.29 80.53 171.54 80.62 171.75 80.62 172.1 80.4 172.31 79.91 172.56 79.59 172.65 79.2 172.71 78.84 172.74 78.54 172.97 78.31 173.48 78.01 173.73 77.83 173.93 77.73 174.04 78 174.13 78.4 174.25 78.78 174.38 79.06 174.5 79.22 174.97 79.42 175.37 79.86 175.66 80.2 175.69 80.51 175.78 80.56 175.8 80.59 175.85 80.61 175.89 80.65 175.94 80.66 175.97 80.69 175.99 80.71 176.03 80.74 176.08 80.78 176.12 80.81 176.2 80.91 176.27 80.96 176.35 81.07 176.37 81.09 176.4 81.11 176.42 81.13 176.44 81.13 176.46 81.13 176.48 81.13 176.5 81.13 176.51 81.12 176.51 81.11 176.55 81.09 176.58 81.05 176.61 81 176.61 80.98 176.66 80.93 176.66 80.9 176.68 80.85 176.72 80.73 176.87 80.49 177.02 80.18 177.08 80.11 177.1 80.07 177.15 79.99 177.17 79.96 177.22 79.85 177.24 79.81 177.26 79.79 177.29 79.75 177.3 79.75 177.31 79.74 177.34 79.73 177.35 79.73 177.4 79.74 177.43 79.75 177.43 79.77 177.44 79.78 177.46 79.78 177.47 79.81 177.49 79.82 177.5 79.84 177.55 79.94 177.6 80.01 177.63 80.08 177.66 80.14 177.85 80.33 177.93 80.33 178.03 80.33 178.22 80.33 178.38 80.33 178.43 80.33 178.5 80.33 178.58 80.33 178.64 80.34 178.71 80.37 178.74 80.37 178.81 80.4 178.89 80.43 178.93 80.44 178.98 80.49 179.07 80.52 179.13 80.59 179.18 80.62 179.2 80.65 179.3 80.73 179.34 80.78 179.36 80.8 179.4 80.86 179.44 80.92 179.49 80.97 179.54 81.05 179.6 81.1 179.78 81.19 179.79 81.19 179.8 81.19 179.81 81.19 179.87 81.17 179.88 81.16 179.91 81.15 179.93 81.13 179.94 81.11 179.97 81.08 180.01 81.04 180.04 81 180.06 80.98 180.09 80.95 180.19 80.83 180.22 80.76 180.26 80.69 180.27 80.67 180.28 80.63 180.32 80.6 180.34 80.59 180.39 80.57 180.35 80.45 180.29 80.29 180.24 80.16 180.24 80.03 180.24 79.87 180.37 79.82 180.5 79.82 180.66 79.82 180.71 79.87 180.74 79.93 180.82 80 180.93 80.11 180.98 80.11 181.13 79.9 181.13 79.87 181.21 79.61 181.26 79.58 181.42 79.58 181.74 79.53 181.76 79.53 182.03 79.53 182.05 79.45 182.13 79.32 182.18 79.17 182.26 78.98 182.42 78.69 182.52 78.25 182.71 77.78 182.98 77.24 183.17 77.22 184.04 77.28 184.3 77.03 184.39 77.01 184.68 76.99 184.94 77.03 185.33 77.21 185.64 77.41 185.87 77.62 186.1 77.78 186.35 77.87 186.56 77.87 186.97 77.85 187.13 78.01 187.42 78.3 188.07 78.79 188.43 78.99 188.52 79.04 189 79.4 189.53 79.81 190 80.31 190.37 80.88 190.89 81.64 191.49 82.63 192.21 83.68 191.95 84.33 191.75 84.71 191.55 85.08 191.38 85.47 191.09 85.98 190.25 86.7 189.88 86.91 189.29 87.06 188.84 87.11 188.19 87.12 187.7 87.08 187.22 87.01 186.88 86.91 186.46 86.74 185.92 86.5 185.7 86.66 185.41 86.94 184.75 87.44 184.29 87.97 183.23 88.63 182.19 89.12 180.99 89.49 180.98 89.5 180.98 89.48 180.73 89.45 180.47 89.4 180.26 89.31 180.06 89.13 179.44 88.57 178.95 87.91 178.79 87.58 178.6 87.51 178.35 87.41 177.5 86.99 177.22 86.89 176.98 86.86 176.65 86.87 176.37 86.88 176.05 86.89 175.72 86.9 175.49 86.95 175.26 87.02 175.11 87.15 175.07 87.36 175.16 87.58 175.79 88.03 176.12 88.41 176.09 88.59 175.87 88.88 175.28 89.47 173.95 90.55 173.09 91.33 172.51 91.66 172.05 91.84 171.69 91.9 171.09 91.92 170.81 92.03 170.43 92.04 170.18 91.96 169.68 91.57 169.29 91.25 169.07 90.82 168.29 89.55 167.88 88.66 167.87 88.64 167.58 88.12 167.4 87.63 167.4 87.25 167.38 86.91 166.84 86.91 166.48 86.84 166.23 86.89 166.12 87.22 165.81 87.45 165.43 87.45 164.95 87.36 164.71 87.27 164.44 87.27 164.26 87.27 164.21 87.54 164.17 87.94 164.14 88.24 163.9 88.33 163.34 88.66 162.48 88.95 161.85 89.36 161.54 89.81 161.5 89.97 161.4 90.37 161.54 91.05 161.72 91.97 161.97 92.51 162.14 92.91 162.26 93.27 162.26 93.54 162.07 93.94 161.98 93.91 161.49 93.92 160.96 93.94 160.48 93.94 160.33 94.05 160.24 94.46 160.34 95.01 160.39 95.57 160.35 96.34 159.93 97.11 159.38 96.64 158.75 96.07 157.31 95.25 156.3 94.46 155.66 94.25 155.49 94.19 155.08 94.22 154.64 94.41 154.04 94.79 153.22 95.42 152.57 95.77 152.08 95.72 151.56 95.64 151.18 95.99 150.42 96.73 149.57 97.49 148.4 98.42 147.88 99.04 148.53 100.43 148.39 100.43 147.79 100.67 147.2 100.92 146.64 101.09 145.39 100.99 145.28 100.8 145.12 100.56 144.77 100.16 144.53 100.03 144.18 99.96 143.74 99.9 142.84 99.47 143.14 99.12 143.22 98.67 143.45 98.21 143.33 97.91 143.01 97.29 142.71 96.8 142.56 96.8 142.36 96.85 142.12 96.91 142.01 96.95 141.68 97 141.37 97.03 140.92 96.96 140.71 96.69 140.48 96.34 140.31 96.23 140.16 96.24 140.06 96.32 139.79 96.45 139.57 96.55 139.39 96.62 138.69 96.6 137.96 96.58 137.69 96.75 137.44 97.02 137.25 97.34 137.09 97.54 137 97.56 136.87 97.58 136.72 97.5 136.43 97.23 136.13 96.54 135.99 96.39 135.84 96.39 135.66 96.41 135.53 96.42 135.32 96.35 135.19 96.06 135 95.79 134.63 95.62 133.9 95.29 133.22 94.88 133.54 94.49 134.67 93.22 135.28 92.53 135.83 91.92 136.18 91.52 137.76 89.85 138.1 89.48 138.89 88.93 139.19 88.7 139.25 88.55 139.35 88.43 139.42 88.4 140.51 87.91 141.16 87.3 142.02 86.77 142.39 86.53 142.64 86.25 142.82 85.97 143.19 85.42 143.31 84.96 143.5 84.56 143.65 84.34 143.66 84.33 143.87 84.12 143.96 83.85 144.24 83.69 144.27 83.42 144.27 83.11 144.3 82.86 144.79 82.34 145.16 81.88 145.41 81.51 145.72 81.2 145.94 81 146.24 80.75 146.57 80.36 146.96 80 147.16 79.85 147.47 79.69 147.83 79.25 147.99 78.84 148.14 78.48 148.42 78.02 148.63 77.63 148.83 77.22 149.09 76.91 149.3 76.78 149.5 76.55 149.79 76.17 149.87 75.98 149.94 75.8 150.05 75.58 150.13 75.33 150.16 75.14 150.15 74.98 150.1 74.51 150.22 74.38 150.35 74.28 150.51 74.26 150.51 74.07 150.41 73.88 150.43 73.73 150.53 73.67 150.72 73.65 150.81 73.59 150.87 73.36 150.81 73.13 150.77 72.96 150.77 72.81 150.94 72.39 151.19 72.1 151.29 71.87 151.44 71.7 151.65 71.57 151.92 71.41 152.09 71.14 152.32 70.78 152.55 70.38 152.89 69.74 152.95 69.62 153.08 69.39 153.17 69.24 153.17 69.23 153.44 69.41 153.54 69.52 153.54 69.68 153.54 69.92 153.56 70.13 153.6 70.35 153.65 70.51 153.75 70.65 153.85 70.74 153.93 70.84 153.96 70.99 153.95 71.28 153.94 71.52 153.91 71.66 153.83 71.89 153.89 72.04 154 72.07 154.18 72.12 154.3 72.19 154.3 72.33 154.26 72.58 154.18 72.84 154.14 72.99 154.1 73.31 154.07 73.69 154.07 73.88 153.95 74.12 153.8 74.27 153.65 74.39 153.52 74.52 153.43 74.8 153.43 75.03 153.54 75.37 153.65 75.67 153.64 75.84 153.83 75.85"/><polygon class="cls-1" points="104.03 125.64 104.81 125.7 105.49 125.59 106.08 125.47 106.57 125.49 106.74 125.74 106.51 126.09 106.84 126.26 107.42 126.5 108.62 127.17 109.24 127.62 109.61 128.08 109.82 128.54 109.92 128.96 110.01 129.57 110.2 129.74 110.91 129.87 111.59 130.07 111.6 130.31 111.62 130.76 111.95 130.86 113.4 130.91 113.81 131.29 114.71 131.4 115.07 131.85 116.05 132.05 116.58 132.24 116.97 132.38 118.07 132.52 119.76 132.8 121.16 133.28 123.08 133.76 124.07 134.31 124.84 134.45 125.56 134.64 126.33 135.55 127.32 136.54 128.08 137.61 128.59 138.31 129.69 139.97 131.05 141.82 131.7 142.86 131.82 144.22 132.64 146.63 133.38 148.91 133.97 151.53 134.44 153.37 135.03 155.94 135.6 158.08 136.03 159.43 136.37 160.66 136.61 162.48 136.84 164.07 137.3 165.97 137.56 167.13 137.64 168.19 137.32 168.24 135.8 168.08 135.23 167.74 134.42 167.37 133.63 167.26 133.06 167.22 132.34 167.16 130.98 167.16 129.4 167.32 127.06 167.41 124.71 167.62 123.78 167.43 122.95 167.14 122.09 166.71 121.56 166.42 120.93 166.38 120.14 166.35 119.45 166.35 118.64 166.47 118.03 166.48 117.16 166.48 116.29 166.32 115.72 166.07 114.95 166.1 109.5 166.13 104.34 166.25 103.17 166.44 102.6 166.59 101.77 166.5 100.12 166.33 98.8 166.63 98.16 166.82 97.8 166.93 95.81 167.54 95.44 167.34 94.2 166.84 93.25 166.41 92.2 166.09 91.21 165.87 89.71 165.66 88.73 165.26 87.93 164.79 86.76 164.29 85.95 164.2 84.39 164.12 79.2 164.22 77.49 162.47 75.97 160.31 74.73 158.58 74.08 156.87 72.47 151.93 72.19 151.12 72.02 150.63 71.52 149.68 70 148.42 69.71 147.72 69.01 146 67.89 142.98 67.09 140.81 67.14 140.79 68.91 140.21 69.94 139.86 70.83 139.59 71.94 139.4 72.64 139.23 74.06 138.9 75.26 138.53 76.34 138.09 77.15 137.75 77.79 137.45 78.53 137.26 79.36 136.91 80.11 136.45 80.77 135.99 81.15 135.67 81.36 135.48 81.79 135.47 82.88 134.62 83.05 134.32 83.1 134.08 83.15 133.78 83.15 133.54 83.25 133.29 83.72 132.78 83.96 132.58 84.18 132.36 84.53 132.26 84.8 132.21 85.19 131.92 85.41 131.43 85.7 131.01 85.92 130.71 86.02 130.3 86.02 129.98 86.13 129.72 86.34 129.66 86.67 129.61 86.91 129.57 87.03 129.48 87.26 129.3 87.59 128.96 87.91 128.63 88.13 128.36 88.34 128.03 88.36 127.59 88.43 127.24 88.5 126.87 88.61 126.52 89.1 126.11 89.47 125.77 89.51 125.72 90.09 125.15 92.05 123.68 92.61 123.23 93.18 122.78 93.66 122.38 93.91 122 94.16 121.47 94.44 121.17 94.9 120.71 95.49 120.39 96.27 119.98 96.81 119.49 97.37 118.97 97.98 118.37 98.33 118.05 98.8 117.7 99.1 117.53 99.33 118.11 99.51 118.9 99.83 119.67 100.34 120.37 100.83 121.13 101.05 122.7 101.38 123.83 101.75 124.28 102.53 124.83 103.37 125.43 104.03 125.64"/><polygon class="cls-2" points="104.03 125.64 104.81 125.7 105.49 125.59 106.08 125.47 106.57 125.49 106.74 125.74 106.51 126.09 106.84 126.26 107.42 126.5 108.62 127.17 109.24 127.62 109.61 128.08 109.82 128.54 109.92 128.96 110.01 129.57 110.2 129.74 110.91 129.87 111.59 130.07 111.6 130.31 111.62 130.76 111.95 130.86 113.4 130.91 113.81 131.29 114.71 131.4 115.07 131.85 116.05 132.05 116.58 132.24 116.97 132.38 118.07 132.52 119.76 132.8 121.16 133.28 123.08 133.76 124.07 134.31 124.84 134.45 125.56 134.64 126.33 135.55 127.32 136.54 128.08 137.61 128.59 138.31 129.69 139.97 131.05 141.82 131.7 142.86 131.82 144.22 132.64 146.63 133.38 148.91 133.97 151.53 134.44 153.37 135.03 155.94 135.6 158.08 136.03 159.43 136.37 160.66 136.61 162.48 136.84 164.07 137.3 165.97 137.56 167.13 137.64 168.19 137.32 168.24 135.8 168.08 135.23 167.74 134.42 167.37 133.63 167.26 133.06 167.22 132.34 167.16 130.98 167.16 129.4 167.32 127.06 167.41 124.71 167.62 123.78 167.43 122.95 167.14 122.09 166.71 121.56 166.42 120.93 166.38 120.14 166.35 119.45 166.35 118.64 166.47 118.03 166.48 117.16 166.48 116.29 166.32 115.72 166.07 114.95 166.1 109.5 166.13 104.34 166.25 103.17 166.44 102.6 166.59 101.77 166.5 100.12 166.33 98.8 166.63 98.16 166.82 97.8 166.93 95.81 167.54 95.44 167.34 94.2 166.84 93.25 166.41 92.2 166.09 91.21 165.87 89.71 165.66 88.73 165.26 87.93 164.79 86.76 164.29 85.95 164.2 84.39 164.12 79.2 164.22 77.49 162.47 75.97 160.31 74.73 158.58 74.08 156.87 72.47 151.93 72.19 151.12 72.02 150.63 71.52 149.68 70 148.42 69.71 147.72 69.01 146 67.89 142.98 67.09 140.81 67.14 140.79 68.91 140.21 69.94 139.86 70.83 139.59 71.94 139.4 72.64 139.23 74.06 138.9 75.26 138.53 76.34 138.09 77.15 137.75 77.79 137.45 78.53 137.26 79.36 136.91 80.11 136.45 80.77 135.99 81.15 135.67 81.36 135.48 81.79 135.47 82.88 134.62 83.05 134.32 83.1 134.08 83.15 133.78 83.15 133.54 83.25 133.29 83.72 132.78 83.96 132.58 84.18 132.36 84.53 132.26 84.8 132.21 85.19 131.92 85.41 131.43 85.7 131.01 85.92 130.71 86.02 130.3 86.02 129.98 86.13 129.72 86.34 129.66 86.67 129.61 86.91 129.57 87.03 129.48 87.26 129.3 87.59 128.96 87.91 128.63 88.13 128.36 88.34 128.03 88.36 127.59 88.43 127.24 88.5 126.87 88.61 126.52 89.1 126.11 89.47 125.77 89.51 125.72 90.09 125.15 92.05 123.68 92.61 123.23 93.18 122.78 93.66 122.38 93.91 122 94.16 121.47 94.44 121.17 94.9 120.71 95.49 120.39 96.27 119.98 96.81 119.49 97.37 118.97 97.98 118.37 98.33 118.05 98.8 117.7 99.1 117.53 99.33 118.11 99.51 118.9 99.83 119.67 100.34 120.37 100.83 121.13 101.05 122.7 101.38 123.83 101.75 124.28 102.53 124.83 103.37 125.43 104.03 125.64"/><path d="M54.64,246h3.92a3.86,3.86,0,0,1,1.59.29,2,2,0,0,1,1.19,2,2.32,2.32,0,0,1-.32,1.27,2.29,2.29,0,0,1-.89.79,1.86,1.86,0,0,1,.76.54,1.92,1.92,0,0,1,.28,1.08l0,1.16a3.62,3.62,0,0,0,.08.73.74.74,0,0,0,.38.53v.19H60.24a.9.9,0,0,1-.09-.29,3.64,3.64,0,0,1-.06-.68L60,252.17a1.22,1.22,0,0,0-.61-1.13,2.4,2.4,0,0,0-1-.16H55.81v3.69H54.64Zm3.79,3.95a2.14,2.14,0,0,0,1.26-.33,1.37,1.37,0,0,0,.47-1.19,1.28,1.28,0,0,0-.65-1.25,2.05,2.05,0,0,0-.93-.18H55.81v2.95Z"/><path d="M66.9,248.47a2.32,2.32,0,0,1,.95.81,2.79,2.79,0,0,1,.42,1.11,7.33,7.33,0,0,1,.1,1.38H63.8a2.73,2.73,0,0,0,.45,1.54,1.5,1.5,0,0,0,1.3.57,1.66,1.66,0,0,0,1.3-.54,1.82,1.82,0,0,0,.39-.74h1a2.3,2.3,0,0,1-.27.77,2.83,2.83,0,0,1-.52.7,2.46,2.46,0,0,1-1.18.63,3.72,3.72,0,0,1-.86.09,2.61,2.61,0,0,1-2-.85,3.33,3.33,0,0,1-.81-2.39,3.59,3.59,0,0,1,.82-2.45,2.67,2.67,0,0,1,2.13-.95A2.79,2.79,0,0,1,66.9,248.47Zm.38,2.46a2.73,2.73,0,0,0-.29-1.09,1.53,1.53,0,0,0-1.44-.77,1.6,1.6,0,0,0-1.21.53,2,2,0,0,0-.52,1.33Zm-.42-5.16-1.56,1.69h-.81l1.07-1.69Z"/><path d="M73.19,248.55a2.77,2.77,0,0,1,.61.59v-.79h1v5.71a4.27,4.27,0,0,1-.35,1.89A2.52,2.52,0,0,1,72,257.22a3.05,3.05,0,0,1-1.7-.45,1.76,1.76,0,0,1-.77-1.42h1.07a1.2,1.2,0,0,0,.3.65,1.57,1.57,0,0,0,1.12.35,1.53,1.53,0,0,0,1.58-.85,4.83,4.83,0,0,0,.21-1.8,2,2,0,0,1-.76.71,2.68,2.68,0,0,1-3-.49,3.17,3.17,0,0,1-.76-2.39,3.64,3.64,0,0,1,.76-2.46,2.38,2.38,0,0,1,1.86-.89A2.21,2.21,0,0,1,73.19,248.55Zm.13,1.13a1.52,1.52,0,0,0-1.22-.56,1.49,1.49,0,0,0-1.51,1,4,4,0,0,0-.22,1.46,2.57,2.57,0,0,0,.43,1.61,1.38,1.38,0,0,0,1.15.56,1.63,1.63,0,0,0,1.59-1,3.35,3.35,0,0,0,.26-1.35A2.61,2.61,0,0,0,73.32,249.68Z"/><path d="M76.38,246h1.07v1.2H76.38Zm0,2.36h1.07v6.25H76.38Z"/><path d="M83.59,248.92a3.19,3.19,0,0,1,.83,2.38,4.07,4.07,0,0,1-.73,2.5,2.65,2.65,0,0,1-2.28,1,2.57,2.57,0,0,1-2-.87,3.51,3.51,0,0,1-.76-2.35,3.75,3.75,0,0,1,.8-2.52,2.69,2.69,0,0,1,2.14-.94A2.83,2.83,0,0,1,83.59,248.92Zm-.66,4.17a4,4,0,0,0,.39-1.76A3.11,3.11,0,0,0,83,249.9a1.56,1.56,0,0,0-1.52-.87,1.51,1.51,0,0,0-1.39.74,3.45,3.45,0,0,0-.43,1.78,3,3,0,0,0,.43,1.67,1.53,1.53,0,0,0,1.38.66A1.42,1.42,0,0,0,82.93,253.09Z"/><path d="M85.72,248.3h1v.89a2.76,2.76,0,0,1,.94-.8,2.51,2.51,0,0,1,1.11-.24,1.81,1.81,0,0,1,1.8.94,3.32,3.32,0,0,1,.26,1.46v4H89.76v-3.95a2.18,2.18,0,0,0-.17-.93,1,1,0,0,0-1-.59,2.12,2.12,0,0,0-.62.08,1.6,1.6,0,0,0-.76.52,1.54,1.54,0,0,0-.34.64,4.42,4.42,0,0,0-.08.94v3.29h-1Z"/><path d="M99.17,248.49a2.91,2.91,0,0,1,.64.61v-3.17h1v8.64h-.95v-.87a2.32,2.32,0,0,1-.87.84,2.5,2.5,0,0,1-1.15.25,2.33,2.33,0,0,1-1.81-.88,3.46,3.46,0,0,1-.76-2.35,4,4,0,0,1,.7-2.37,2.27,2.27,0,0,1,2-1A2.23,2.23,0,0,1,99.17,248.49Zm-2.35,4.7a1.47,1.47,0,0,0,1.36.68,1.43,1.43,0,0,0,1.2-.63,3,3,0,0,0,.47-1.8,2.67,2.67,0,0,0-.49-1.77,1.5,1.5,0,0,0-1.19-.57,1.6,1.6,0,0,0-1.29.61,2.88,2.88,0,0,0-.49,1.8A3,3,0,0,0,96.82,253.19Z"/><path d="M106.27,248.47a2.32,2.32,0,0,1,1,.81,2.79,2.79,0,0,1,.42,1.11,7.53,7.53,0,0,1,.09,1.38h-4.56a2.73,2.73,0,0,0,.45,1.54,1.5,1.5,0,0,0,1.29.57,1.67,1.67,0,0,0,1.31-.54,2,2,0,0,0,.39-.74h1a2.13,2.13,0,0,1-.28.77,2.58,2.58,0,0,1-.51.7,2.46,2.46,0,0,1-1.18.63,3.72,3.72,0,0,1-.86.09,2.61,2.61,0,0,1-2-.85,3.33,3.33,0,0,1-.81-2.39,3.64,3.64,0,0,1,.81-2.45,2.71,2.71,0,0,1,2.14-.95A2.79,2.79,0,0,1,106.27,248.47Zm.38,2.46a2.57,2.57,0,0,0-.3-1.09,1.5,1.5,0,0,0-1.43-.77,1.6,1.6,0,0,0-1.21.53,2,2,0,0,0-.52,1.33Z"/><path d="M118.27,246.21a3.06,3.06,0,0,1,1.55,2.36h-1.15a2.06,2.06,0,0,0-.86-1.37,2.85,2.85,0,0,0-1.63-.43,2.52,2.52,0,0,0-2,.89,3.87,3.87,0,0,0-.8,2.67,4.32,4.32,0,0,0,.66,2.5,2.41,2.41,0,0,0,2.15,1,2.72,2.72,0,0,0,1.89-.68,2.86,2.86,0,0,0,.77-2.19h-2.7v-1H120v4.61h-.75l-.28-1.11a4.36,4.36,0,0,1-1,.91,3.9,3.9,0,0,1-1.92.43,3.73,3.73,0,0,1-2.59-1,4.75,4.75,0,0,1-1.18-3.41,4.94,4.94,0,0,1,1.16-3.44,3.65,3.65,0,0,1,2.84-1.22A4.32,4.32,0,0,1,118.27,246.21Z"/><path d="M122.79,248.3v4.16a1.82,1.82,0,0,0,.15.79,1,1,0,0,0,1,.56,1.43,1.43,0,0,0,1.46-1,4,4,0,0,0,.22-1.44V248.3h1v6.27h-1l0-.93a2.51,2.51,0,0,1-.5.61,2.19,2.19,0,0,1-1.44.49,1.85,1.85,0,0,1-1.8-.9,2.72,2.72,0,0,1-.25-1.28V248.3Z"/><path d="M132.29,248.47a2.46,2.46,0,0,1,1,.81,2.79,2.79,0,0,1,.42,1.11,7.53,7.53,0,0,1,.09,1.38h-4.56a2.73,2.73,0,0,0,.44,1.54,1.52,1.52,0,0,0,1.3.57,1.68,1.68,0,0,0,1.31-.54,2,2,0,0,0,.39-.74h1a2.1,2.1,0,0,1-.27.77,2.6,2.6,0,0,1-.52.7,2.41,2.41,0,0,1-1.18.63,3.63,3.63,0,0,1-.85.09,2.62,2.62,0,0,1-2-.85,3.32,3.32,0,0,1-.8-2.39,3.64,3.64,0,0,1,.81-2.45,2.67,2.67,0,0,1,2.13-.95A2.86,2.86,0,0,1,132.29,248.47Zm.38,2.46a2.9,2.9,0,0,0-.3-1.09,1.52,1.52,0,0,0-1.43-.77,1.57,1.57,0,0,0-1.21.53,2,2,0,0,0-.52,1.33Z"/><path d="M135.12,246h1v8.61h-1Z"/><path d="M137.75,248.3h1.05v.89a3.33,3.33,0,0,1,.68-.68,2,2,0,0,1,1.18-.36,1.92,1.92,0,0,1,1.21.37,2,2,0,0,1,.46.62,2.32,2.32,0,0,1,.83-.74,2.34,2.34,0,0,1,1.07-.25,1.74,1.74,0,0,1,1.72.92,3,3,0,0,1,.25,1.32v4.18h-1.1v-4.36a1,1,0,0,0-.31-.86,1.23,1.23,0,0,0-.77-.23,1.51,1.51,0,0,0-1.07.41,1.83,1.83,0,0,0-.45,1.39v3.65h-1.07v-4.1a2.18,2.18,0,0,0-.15-.93.94.94,0,0,0-.9-.44,1.52,1.52,0,0,0-1.08.47,2.24,2.24,0,0,0-.49,1.67v3.33h-1.06Z"/><path d="M147.75,246h1.07v1.2h-1.07Zm0,2.36h1.07v6.25h-1.07Z"/><path d="M150.41,248.3h1.05v.89a3.33,3.33,0,0,1,.68-.68,2,2,0,0,1,1.18-.36,1.92,1.92,0,0,1,1.21.37,2,2,0,0,1,.47.62,2.29,2.29,0,0,1,.82-.74,2.34,2.34,0,0,1,1.07-.25,1.74,1.74,0,0,1,1.72.92,2.9,2.9,0,0,1,.25,1.32v4.18h-1.1v-4.36a1,1,0,0,0-.31-.86,1.23,1.23,0,0,0-.77-.23,1.51,1.51,0,0,0-1.07.41,1.87,1.87,0,0,0-.44,1.39v3.65h-1.08v-4.1a2.18,2.18,0,0,0-.15-.93.93.93,0,0,0-.89-.44,1.54,1.54,0,0,0-1.09.47,2.24,2.24,0,0,0-.49,1.67v3.33h-1.06Z"/><path d="M160.14,250.69h2.94v1.08h-2.94Z"/><path d="M171.64,247.19a4.78,4.78,0,0,1,.85,2.93,5.06,5.06,0,0,1-1,3.2,3.86,3.86,0,0,1-3.27,1.5,3.9,3.9,0,0,1-3.12-1.31,4.93,4.93,0,0,1-1-3.2,5.09,5.09,0,0,1,.87-3,3.76,3.76,0,0,1,3.29-1.59A4,4,0,0,1,171.64,247.19Zm-1,5.49a4.69,4.69,0,0,0,.69-2.54,3.65,3.65,0,0,0-.8-2.45,2.69,2.69,0,0,0-2.17-.92,2.84,2.84,0,0,0-2.18.91,3.91,3.91,0,0,0-.84,2.71,4,4,0,0,0,.72,2.41,2.73,2.73,0,0,0,2.35,1A2.42,2.42,0,0,0,170.61,252.68Z"/><path d="M174.8,248.3v4.16a2,2,0,0,0,.14.79,1.05,1.05,0,0,0,1,.56,1.45,1.45,0,0,0,1.46-1,4,4,0,0,0,.21-1.44V248.3h1.05v6.27h-1v-.93a2.3,2.3,0,0,1-.5.61,2.19,2.19,0,0,1-1.44.49,1.83,1.83,0,0,1-1.79-.9,2.6,2.6,0,0,1-.26-1.28V248.3Z"/><path d="M184.29,248.47a2.39,2.39,0,0,1,1,.81,2.79,2.79,0,0,1,.42,1.11,7.53,7.53,0,0,1,.09,1.38h-4.56a2.73,2.73,0,0,0,.45,1.54,1.48,1.48,0,0,0,1.29.57,1.68,1.68,0,0,0,1.31-.54,2,2,0,0,0,.39-.74h1a1.93,1.93,0,0,1-.27.77,2.58,2.58,0,0,1-.51.7,2.49,2.49,0,0,1-1.19.63,3.63,3.63,0,0,1-.85.09,2.6,2.6,0,0,1-2-.85,3.33,3.33,0,0,1-.81-2.39,3.64,3.64,0,0,1,.81-2.45,2.7,2.7,0,0,1,2.13-.95A2.8,2.8,0,0,1,184.29,248.47Zm.38,2.46a2.57,2.57,0,0,0-.3-1.09,1.5,1.5,0,0,0-1.43-.77,1.58,1.58,0,0,0-1.21.53,2,2,0,0,0-.52,1.33Z"/><path d="M190.54,248.49a2.9,2.9,0,0,1,.63.61v-3.17h1v8.64h-.95v-.87a2.48,2.48,0,0,1-.87.84,2.52,2.52,0,0,1-1.15.25,2.31,2.31,0,0,1-1.81-.88,3.46,3.46,0,0,1-.77-2.35,4.09,4.09,0,0,1,.7-2.37,2.48,2.48,0,0,1,3.2-.7Zm-2.36,4.7a1.49,1.49,0,0,0,1.37.68,1.42,1.42,0,0,0,1.19-.63,2.92,2.92,0,0,0,.47-1.8,2.73,2.73,0,0,0-.48-1.77,1.51,1.51,0,0,0-1.2-.57,1.6,1.6,0,0,0-1.28.61,2.82,2.82,0,0,0-.49,1.8A3.12,3.12,0,0,0,188.18,253.19Z"/><path d="M197.24,246h1.37l4.29,7v-7H204v8.61h-1.31l-4.36-6.95v6.95h-1.11Z"/><path d="M210.31,248.92a3.19,3.19,0,0,1,.83,2.38,4.07,4.07,0,0,1-.73,2.5,2.65,2.65,0,0,1-2.28,1,2.58,2.58,0,0,1-2-.87,3.51,3.51,0,0,1-.76-2.35,3.75,3.75,0,0,1,.8-2.52,2.69,2.69,0,0,1,2.14-.94A2.81,2.81,0,0,1,210.31,248.92Zm-.66,4.17a4,4,0,0,0,.39-1.76,3.11,3.11,0,0,0-.28-1.43,1.56,1.56,0,0,0-1.52-.87,1.51,1.51,0,0,0-1.39.74,3.45,3.45,0,0,0-.43,1.78,3,3,0,0,0,.43,1.67,1.53,1.53,0,0,0,1.38.66A1.42,1.42,0,0,0,209.65,253.09Z"/><path d="M213.49,248.3v4.16a1.82,1.82,0,0,0,.15.79,1,1,0,0,0,1,.56,1.44,1.44,0,0,0,1.46-1,4,4,0,0,0,.21-1.44V248.3h1.06v6.27h-1v-.93a2.11,2.11,0,0,1-1.93,1.1,1.85,1.85,0,0,1-1.8-.9,2.71,2.71,0,0,1-.26-1.28V248.3Z"/><path d="M219.11,248.3h1v.89a2.78,2.78,0,0,1,.95-.8,2.5,2.5,0,0,1,1.1-.24,1.83,1.83,0,0,1,1.81.94,3.32,3.32,0,0,1,.26,1.46v4h-1.08v-3.95a2,2,0,0,0-.17-.93,1,1,0,0,0-1-.59,2,2,0,0,0-.61.08,1.6,1.6,0,0,0-.76.52,1.56,1.56,0,0,0-.35.64,4.42,4.42,0,0,0-.08.94v3.29h-1Z"/><path d="M167.91,155.05h.49l1.17,3.2h-.48l-.32-1H167.5l-.35,1h-.45Zm.72,1.89-.49-1.42-.52,1.42Z"/><path d="M170.14,157.52a.7.7,0,0,0,.1.3.65.65,0,0,0,.53.19.8.8,0,0,0,.39-.09.31.31,0,0,0,.17-.3.26.26,0,0,0-.13-.23,1.6,1.6,0,0,0-.35-.11l-.31-.08a1.74,1.74,0,0,1-.45-.16.51.51,0,0,1-.26-.44.68.68,0,0,1,.24-.54,1,1,0,0,1,.66-.21.94.94,0,0,1,.77.31.65.65,0,0,1,.14.43h-.37a.5.5,0,0,0-.09-.24.63.63,0,0,0-.49-.16.55.55,0,0,0-.34.09.25.25,0,0,0-.12.22.29.29,0,0,0,.16.25,1.26,1.26,0,0,0,.26.09l.26.06a2.28,2.28,0,0,1,.58.2.52.52,0,0,1,.23.48.73.73,0,0,1-.24.54,1.33,1.33,0,0,1-1.48,0,.94.94,0,0,1-.23-.59Z"/><path d="M172.38,157.52a.59.59,0,0,0,.1.3.63.63,0,0,0,.53.19.8.8,0,0,0,.39-.09.33.33,0,0,0,.17-.3.27.27,0,0,0-.14-.23,1.46,1.46,0,0,0-.34-.11l-.32-.08a1.52,1.52,0,0,1-.44-.16.49.49,0,0,1-.26-.44.68.68,0,0,1,.24-.54,1,1,0,0,1,.65-.21.91.91,0,0,1,.77.31.72.72,0,0,1,.15.43h-.37a.43.43,0,0,0-.1-.24.59.59,0,0,0-.48-.16.53.53,0,0,0-.34.09.25.25,0,0,0-.12.22.3.3,0,0,0,.15.25l.27.09.26.06a2.28,2.28,0,0,1,.58.2.54.54,0,0,1,.23.48.73.73,0,0,1-.24.54,1,1,0,0,1-.73.22,1,1,0,0,1-.75-.23.9.9,0,0,1-.24-.59Z"/><path d="M175.64,156.84a.2.2,0,0,0,.18-.12.3.3,0,0,0,0-.15.31.31,0,0,0-.14-.29.76.76,0,0,0-.41-.09.51.51,0,0,0-.43.17.57.57,0,0,0-.1.27h-.36a.65.65,0,0,1,.28-.6,1.15,1.15,0,0,1,.62-.17,1.21,1.21,0,0,1,.67.16.52.52,0,0,1,.26.49v1.34a.15.15,0,0,0,0,.1s.05,0,.11,0h.13v.29l-.14,0h-.13a.32.32,0,0,1-.3-.14.71.71,0,0,1-.07-.22,1,1,0,0,1-.34.28,1.18,1.18,0,0,1-.5.11.72.72,0,0,1-.53-.2.64.64,0,0,1-.21-.49.61.61,0,0,1,.21-.5.89.89,0,0,1,.53-.22Zm-.83,1.06a.43.43,0,0,0,.29.1.86.86,0,0,0,.41-.1.54.54,0,0,0,.32-.52v-.31a.61.61,0,0,1-.18.07l-.22.05-.24,0a.77.77,0,0,0-.32.09.33.33,0,0,0-.18.32A.32.32,0,0,0,174.81,157.9Z"/><path d="M176.77,156.81h1.09v.4h-1.09Z"/><path d="M178.18,157.89l2-2.46h-1.83v-.38h2.39v.37l-2,2.45h2v.38h-2.53Z"/><path d="M182.35,156.84a.2.2,0,0,0,.18-.12.49.49,0,0,0,0-.15.31.31,0,0,0-.14-.29.76.76,0,0,0-.41-.09.51.51,0,0,0-.43.17.57.57,0,0,0-.1.27h-.36a.65.65,0,0,1,.28-.6,1.15,1.15,0,0,1,.62-.17,1.21,1.21,0,0,1,.67.16.52.52,0,0,1,.26.49v1.34a.15.15,0,0,0,0,.1s0,0,.11,0h.13v.29l-.14,0h-.13a.32.32,0,0,1-.3-.14.71.71,0,0,1-.07-.22,1,1,0,0,1-.34.28,1.18,1.18,0,0,1-.5.11.7.7,0,0,1-.53-.2.64.64,0,0,1-.21-.49.61.61,0,0,1,.21-.5.89.89,0,0,1,.53-.22Zm-.83,1.06a.43.43,0,0,0,.29.1.86.86,0,0,0,.41-.1.54.54,0,0,0,.32-.52v-.31a.75.75,0,0,1-.18.07l-.22.05-.24,0a.77.77,0,0,0-.32.09.36.36,0,0,0-.06.59Z"/><path d="M184.88,156a1.15,1.15,0,0,1,.23.22v-.29h.36v2.12a1.55,1.55,0,0,1-.13.71.93.93,0,0,1-.92.47,1.06,1.06,0,0,1-.63-.17.64.64,0,0,1-.29-.53h.4a.45.45,0,0,0,.11.25.62.62,0,0,0,.42.13.59.59,0,0,0,.59-.32,1.84,1.84,0,0,0,.07-.67.8.8,0,0,1-.28.27,1.08,1.08,0,0,1-.44.08.93.93,0,0,1-.66-.27,1.17,1.17,0,0,1-.28-.89,1.37,1.37,0,0,1,.28-.92.88.88,0,0,1,.69-.33A.85.85,0,0,1,184.88,156Zm.05.42a.57.57,0,0,0-.45-.21.56.56,0,0,0-.57.39,1.62,1.62,0,0,0-.08.54,1,1,0,0,0,.16.61.54.54,0,0,0,.43.2.6.6,0,0,0,.59-.38,1.16,1.16,0,0,0,.1-.51A1,1,0,0,0,184.93,156.43Z"/><path d="M96.54,146.22v.38H95.46v2.82H95V146.6H93.94v-.38Z"/><path d="M97.65,148a.21.21,0,0,0,.18-.11.35.35,0,0,0,0-.16.33.33,0,0,0-.14-.29.78.78,0,0,0-.41-.09.53.53,0,0,0-.44.17.48.48,0,0,0-.09.27h-.37a.67.67,0,0,1,.28-.6,1.19,1.19,0,0,1,.63-.17,1.23,1.23,0,0,1,.67.16.52.52,0,0,1,.25.49V149a.15.15,0,0,0,0,.1s0,0,.1,0h.13v.29l-.14,0h-.13a.31.31,0,0,1-.29-.14.4.4,0,0,1-.07-.21,1.12,1.12,0,0,1-.35.27,1.14,1.14,0,0,1-.49.11.72.72,0,0,1-.53-.19.67.67,0,0,1-.21-.5.65.65,0,0,1,.2-.5,1,1,0,0,1,.54-.22Zm-.83,1.06a.47.47,0,0,0,.3.1.82.82,0,0,0,.4-.1.53.53,0,0,0,.33-.52v-.31a.69.69,0,0,1-.19.07l-.22.05-.24,0a1,1,0,0,0-.32.09.34.34,0,0,0-.18.32A.32.32,0,0,0,96.82,149.07Z"/><path d="M98.89,147.09h.37v.33a1.06,1.06,0,0,1,.35-.3A.91.91,0,0,1,100,147a.69.69,0,0,1,.68.35,1.32,1.32,0,0,1,.09.54v1.5h-.4V148a.8.8,0,0,0-.06-.34.38.38,0,0,0-.38-.22.75.75,0,0,0-.23,0,.52.52,0,0,0-.28.19.47.47,0,0,0-.13.24,1.56,1.56,0,0,0,0,.35v1.22h-.39Z"/><path d="M101.27,148h1.1v.4h-1.1Z"/><path d="M105.25,146.22v.38h-1.08v2.82h-.44V146.6h-1.08v-.38Z"/><path d="M106.36,148a.21.21,0,0,0,.18-.11.37.37,0,0,0,0-.16.31.31,0,0,0-.14-.29.76.76,0,0,0-.41-.09.51.51,0,0,0-.43.17.57.57,0,0,0-.1.27h-.36a.65.65,0,0,1,.28-.6A1.18,1.18,0,0,1,106,147a1.21,1.21,0,0,1,.67.16.52.52,0,0,1,.26.49V149a.25.25,0,0,0,0,.1s0,0,.11,0h.13v.29l-.14,0h-.13a.32.32,0,0,1-.3-.14.73.73,0,0,1-.07-.21,1.07,1.07,0,0,1-.34.27,1.18,1.18,0,0,1-.5.11.75.75,0,0,1-.53-.19.67.67,0,0,1-.21-.5.63.63,0,0,1,.21-.5,1,1,0,0,1,.53-.22Zm-.83,1.06a.43.43,0,0,0,.29.1.86.86,0,0,0,.41-.1.54.54,0,0,0,.32-.52v-.31a.61.61,0,0,1-.18.07l-.22.05-.24,0a1,1,0,0,0-.32.09.34.34,0,0,0-.18.32A.32.32,0,0,0,105.53,149.07Z"/><path d="M107.59,147.09H108v.33a1,1,0,0,1,.35-.3.91.91,0,0,1,.41-.09.68.68,0,0,1,.67.35,1.16,1.16,0,0,1,.1.54v1.5h-.4V148a.66.66,0,0,0-.07-.34.37.37,0,0,0-.38-.22.69.69,0,0,0-.22,0,.55.55,0,0,0-.29.19.56.56,0,0,0-.13.24,1.56,1.56,0,0,0,0,.35v1.22h-.39Z"/><path d="M143.5,110.09a1.13,1.13,0,0,1,.58.88h-.43a.8.8,0,0,0-.32-.51,1,1,0,0,0-.61-.16,1,1,0,0,0-.73.33,1.48,1.48,0,0,0-.3,1,1.57,1.57,0,0,0,.25.93.89.89,0,0,0,.8.36,1,1,0,0,0,.7-.25,1,1,0,0,0,.29-.82h-1v-.36h1.4v1.72h-.28l-.1-.41a1.51,1.51,0,0,1-.39.33,1.53,1.53,0,0,1-1.68-.21,1.77,1.77,0,0,1-.44-1.27,1.88,1.88,0,0,1,.43-1.28,1.38,1.38,0,0,1,1.06-.45A1.54,1.54,0,0,1,143.5,110.09Z"/><path d="M145.19,110.87v1.55a.76.76,0,0,0,.05.29.39.39,0,0,0,.38.21.55.55,0,0,0,.55-.36,1.54,1.54,0,0,0,.08-.54v-1.15h.39v2.34h-.37v-.35a.75.75,0,0,1-.72.41.7.7,0,0,1-.67-.33,1.08,1.08,0,0,1-.09-.48v-1.59Z"/><path d="M148.73,110.93a.88.88,0,0,1,.35.31,1,1,0,0,1,.16.41,3.13,3.13,0,0,1,0,.51h-1.7a1,1,0,0,0,.17.58.55.55,0,0,0,.48.21.63.63,0,0,0,.49-.2.67.67,0,0,0,.14-.28h.39a.72.72,0,0,1-.1.29,1.09,1.09,0,0,1-.19.26,1,1,0,0,1-.44.24,1.58,1.58,0,0,1-.32,0,1,1,0,0,1-.74-.32,1.24,1.24,0,0,1-.3-.89,1.35,1.35,0,0,1,.3-.91,1,1,0,0,1,.8-.35A1.2,1.2,0,0,1,148.73,110.93Zm.14.92a1.11,1.11,0,0,0-.11-.41.57.57,0,0,0-.54-.28.58.58,0,0,0-.45.19.79.79,0,0,0-.19.5Z"/><path d="M149.78,110h.39v3.21h-.39Z"/><path d="M150.76,110.87h.39v.33a1.46,1.46,0,0,1,.26-.25.74.74,0,0,1,.44-.13.73.73,0,0,1,.45.13.78.78,0,0,1,.17.24.82.82,0,0,1,.31-.28.87.87,0,0,1,.4-.09.64.64,0,0,1,.64.34,1.1,1.1,0,0,1,.09.49v1.56h-.41v-1.63a.41.41,0,0,0-.11-.32.48.48,0,0,0-.29-.09.59.59,0,0,0-.4.16.69.69,0,0,0-.16.52v1.36h-.4v-1.53a.79.79,0,0,0-.06-.35.35.35,0,0,0-.34-.16.6.6,0,0,0-.4.17.88.88,0,0,0-.18.63v1.24h-.4Z"/><path d="M154.49,110h.4v.45h-.4Zm0,.88h.4v2.33h-.4Z"/><path d="M155.48,110.87h.39v.33a1.46,1.46,0,0,1,.26-.25.74.74,0,0,1,.44-.13.73.73,0,0,1,.45.13.78.78,0,0,1,.17.24.82.82,0,0,1,.31-.28.87.87,0,0,1,.4-.09.64.64,0,0,1,.64.34,1.1,1.1,0,0,1,.09.49v1.56h-.41v-1.63a.41.41,0,0,0-.11-.32.48.48,0,0,0-.29-.09.59.59,0,0,0-.4.16.69.69,0,0,0-.16.52v1.36h-.4v-1.53a.79.79,0,0,0-.06-.35.35.35,0,0,0-.34-.16.6.6,0,0,0-.4.17.88.88,0,0,0-.18.63v1.24h-.4Z"/><path d="M145.87,87a.92.92,0,0,0,.12.44.83.83,0,0,0,.74.32,1.18,1.18,0,0,0,.43-.07.49.49,0,0,0,.37-.49.41.41,0,0,0-.16-.37,1.44,1.44,0,0,0-.5-.19l-.42-.1a1.76,1.76,0,0,1-.59-.21.68.68,0,0,1-.29-.6.94.94,0,0,1,.29-.71,1.17,1.17,0,0,1,.83-.28,1.36,1.36,0,0,1,.83.25.87.87,0,0,1,.34.77h-.41a.78.78,0,0,0-.13-.39.76.76,0,0,0-.65-.25.73.73,0,0,0-.53.16.55.55,0,0,0-.16.38.38.38,0,0,0,.19.34,3.21,3.21,0,0,0,.57.18l.43.1a1.25,1.25,0,0,1,.49.2.77.77,0,0,1,.3.65.84.84,0,0,1-.38.77,1.7,1.7,0,0,1-.88.23,1.3,1.3,0,0,1-.91-.31,1,1,0,0,1-.33-.82Z"/><path d="M148.52,84.77h.4v.45h-.4Zm0,.88h.4V88h-.4Z"/><path d="M150.8,85.71l.23.23V84.76h.38V88h-.35v-.32a.89.89,0,0,1-.33.31.94.94,0,0,1-.43.09.85.85,0,0,1-.67-.32,1.31,1.31,0,0,1-.29-.88,1.52,1.52,0,0,1,.26-.88.94.94,0,0,1,1.2-.27Zm-.88,1.76a.54.54,0,0,0,.51.25.53.53,0,0,0,.44-.23,1.1,1.1,0,0,0,.18-.68,1,1,0,0,0-.18-.65.55.55,0,0,0-.45-.22.6.6,0,0,0-.48.23,1.07,1.07,0,0,0-.18.67A1.14,1.14,0,0,0,149.92,87.47Z"/><path d="M152,84.77h.4v.45H152Zm0,.88h.4V88H152Z"/><path d="M154.39,84.77h.43V88h-.43Z"/><path d="M155.66,84.93a.59.59,0,0,1,.53-.2h.17v.35h-.14c-.12,0-.2,0-.22.09a1.88,1.88,0,0,0,0,.47h.4V86H156v2h-.38V86h-.33v-.31h.33v-.36A.64.64,0,0,1,155.66,84.93Z"/><path d="M156.72,85.64h.37V86a1.07,1.07,0,0,1,.36-.29.91.91,0,0,1,.41-.09.69.69,0,0,1,.67.35,1.13,1.13,0,0,1,.1.54V88h-.4V86.51a.7.7,0,0,0-.07-.35.39.39,0,0,0-.38-.22.65.65,0,0,0-.22,0,.61.61,0,0,0-.29.19.71.71,0,0,0-.13.24,1.66,1.66,0,0,0,0,.36V88h-.39Z"/><path d="M159.21,84.77h.4v.45h-.4Zm0,.88h.4V88h-.4Z"/></svg>